<svg width="14" height="14" viewBox="0 0 14 14" fill="none" xmlns="http://www.w3.org/2000/svg">
<g clip-path="url(#clip0_2_21)">
<path d="M3.5 1.16666L1.75 3.49999V11.6667C1.75 11.9761 1.87292 12.2728 2.09171 12.4916C2.3105 12.7104 2.60725 12.8333 2.91667 12.8333H11.0833C11.3928 12.8333 11.6895 12.7104 11.9083 12.4916C12.1271 12.2728 12.25 11.9761 12.25 11.6667V3.49999L10.5 1.16666H3.5Z" stroke="black" stroke-width="2" stroke-linecap="round" stroke-linejoin="round"/>
<path d="M1.75 3.5H12.25" stroke="black" stroke-width="2" stroke-linecap="round" stroke-linejoin="round"/>
<path d="M9.33335 5.83334C9.33335 6.45218 9.08752 7.04567 8.64994 7.48326C8.21235 7.92084 7.61886 8.16668 7.00002 8.16668C6.38118 8.16668 5.78769 7.92084 5.3501 7.48326C4.91252 7.04567 4.66669 6.45218 4.66669 5.83334" stroke="black" stroke-width="2" stroke-linecap="round" stroke-linejoin="round"/>
</g>
<defs>
<clipPath id="clip0_2_21">
<rect width="14" height="14" fill="white"/>
</clipPath>
</defs>
</svg>
