<svg version="1.1" xmlns="http://www.w3.org/2000/svg" xmlns:xlink="http://www.w3.org/1999/xlink" width="16" height="16" viewBox="0,0,256,256"><g fill="#8257e5" fill-rule="nonzero" stroke="none" stroke-width="1" stroke-linecap="butt" stroke-linejoin="miter" stroke-miterlimit="10" stroke-dasharray="" stroke-dashoffset="0" font-family="none" font-weight="none" font-size="none" text-anchor="none" style="mix-blend-mode: normal"><g transform="scale(16,16)"><path d="M0,8c0,-4.41828 3.58172,-8 8,-8c4.41828,0 8,3.58172 8,8c0,4.41828 -3.58172,8 -8,8c-4.41828,0 -8,-3.58172 -8,-8M7.5,1.077c-0.67,0.204 -1.335,0.82 -1.887,1.855c-0.18177,0.34414 -0.33819,0.70109 -0.468,1.068h2.355zM4.09,4c0.16684,-0.53112 0.38103,-1.04619 0.64,-1.539c0.17404,-0.32628 0.37367,-0.63826 0.597,-0.933c-1.23885,0.51407 -2.30479,1.37181 -3.072,2.472zM3.508,7.5c0.03,-0.877 0.138,-1.718 0.312,-2.5h-2.146c-0.37195,0.78539 -0.59441,1.63317 -0.656,2.5zM4.847,5c-0.19669,0.8198 -0.30993,1.6574 -0.338,2.5h2.991v-2.5zM8.5,5v2.5h2.99c-0.02774,-0.84257 -0.14065,-1.68016 -0.337,-2.5zM4.51,8.5c0.02774,0.84257 0.14065,1.68016 0.337,2.5h2.653v-2.5zM8.5,8.5v2.5h2.653c0.187,-0.765 0.306,-1.608 0.338,-2.5zM5.145,12c0.13867,0.38667 0.29467,0.74267 0.468,1.068c0.552,1.035 1.218,1.65 1.887,1.855v-2.923zM5.327,14.472c-0.22333,-0.29474 -0.42296,-0.60672 -0.597,-0.933c-0.25897,-0.49281 -0.47316,-1.00788 -0.64,-1.539h-1.835c0.76597,1.10134 1.83228,1.95939 3.072,2.472M3.82,11c-0.18057,-0.82198 -0.28501,-1.65885 -0.312,-2.5h-2.49c0.062,0.89 0.291,1.733 0.656,2.5zM10.673,14.472c1.23972,-0.51261 2.30603,-1.37066 3.072,-2.472h-1.835c-0.16684,0.53112 -0.38103,1.04619 -0.64,1.539c-0.17404,0.32628 -0.37367,0.63826 -0.597,0.933M8.5,12v2.923c0.67,-0.204 1.335,-0.82 1.887,-1.855c0.17333,-0.32467 0.32933,-0.68067 0.468,-1.068zM12.18,11h2.146c0.365,-0.767 0.594,-1.61 0.656,-2.5h-2.49c-0.02699,0.84115 -0.13143,1.67802 -0.312,2.5M14.982,7.5c-0.06159,-0.86683 -0.28405,-1.71461 -0.656,-2.5h-2.146c0.174,0.782 0.282,1.623 0.312,2.5zM11.27,2.461c0.247,0.464 0.462,0.98 0.64,1.539h1.835c-0.76597,-1.10134 -1.83228,-1.95939 -3.072,-2.472c0.218,0.284 0.418,0.598 0.597,0.933M10.855,4c-0.12981,-0.36691 -0.28623,-0.72386 -0.468,-1.068c-0.552,-1.035 -1.217,-1.65 -1.887,-1.855v2.923z"></path></g></g></svg>